# xmcd
#
# Track frame offsets: 
#        150
#        27047
#        45062
#        63931
#        89971
#        111055
#        129658
#        148529
#        172937
#
# Disc length: 2573 seconds
#
# Revision: 1
# Processed by: cddbd v1.5.2PL0 Copyright (c) Steve Scherf et al.
# Submitted via: ExactAudioCopy v1.3
#
DISCID=6f0a0b09
DTITLE=Louis Tillett - The Hanged Man
DYEAR=2005
DGENRE=Rock
TTITLE0=Four Walls and No Back Door
TTITLE1=Ocean Bound
TTITLE2=Through the Dream
TTITLE3=Prayer Before Dawn
TTITLE4=Around You
TTITLE5=Bitter Pill
TTITLE6=It's All Right Now
TTITLE7=Back From the Sea
TTITLE8=Teary Eyes
EXTD=YEAR: 2006
EXTT0=
EXTT1=
EXTT2=
EXTT3=
EXTT4=
EXTT5=
EXTT6=
EXTT7=
EXTT8=
PLAYORDER=
